<svg width="138" height="22" viewBox="0 0 138 22" fill="none" xmlns="http://www.w3.org/2000/svg">
<path d="M8.84 0.0559993C9.8 0.0559993 10.688 0.191999 11.504 0.464C12.32 0.735999 13.04 1.088 13.664 1.52C14.288 1.952 14.776 2.416 15.128 2.912L13.448 4.664C12.808 4.056 12.104 3.56 11.336 3.176C10.568 2.776 9.736 2.576 8.84 2.576C7.704 2.576 6.672 2.84 5.744 3.368C4.832 3.896 4.112 4.616 3.584 5.528C3.056 6.424 2.792 7.448 2.792 8.6C2.792 9.736 3.072 10.768 3.632 11.696C4.192 12.624 4.936 13.36 5.864 13.904C6.808 14.448 7.832 14.72 8.936 14.72C9.736 14.72 10.488 14.568 11.192 14.264C11.896 13.944 12.464 13.512 12.896 12.968C13.344 12.424 13.568 11.8 13.568 11.096C13.568 11.016 13.568 10.968 13.568 10.952H8.792V8.384H16.232C16.264 8.624 16.288 8.864 16.304 9.104C16.336 9.344 16.352 9.584 16.352 9.824C16.352 10.704 16.216 11.568 15.944 12.416C15.688 13.264 15.28 14 14.72 14.624C14.08 15.424 13.248 16.064 12.224 16.544C11.216 17.008 10.096 17.24 8.864 17.24C7.648 17.24 6.512 17.024 5.456 16.592C4.4 16.144 3.472 15.528 2.672 14.744C1.872 13.96 1.248 13.048 0.8 12.008C0.368 10.952 0.152 9.816 0.152 8.6C0.152 7.384 0.368 6.264 0.8 5.24C1.248 4.2 1.864 3.296 2.648 2.528C3.448 1.744 4.376 1.136 5.432 0.704C6.488 0.271999 7.624 0.0559993 8.84 0.0559993ZM53.1498 2.88C53.9498 2.88 54.6898 2.99333 55.3698 3.22C56.0498 3.44667 56.6498 3.74 57.1698 4.1C57.6898 4.46 58.0965 4.84667 58.3898 5.26L56.9898 6.72C56.4565 6.21333 55.8698 5.8 55.2298 5.48C54.5898 5.14667 53.8965 4.98 53.1498 4.98C52.2032 4.98 51.3432 5.2 50.5698 5.64C49.8098 6.08 49.2098 6.68 48.7698 7.44C48.3298 8.18667 48.1098 9.04 48.1098 10C48.1098 10.9467 48.3432 11.8067 48.8098 12.58C49.2765 13.3533 49.8965 13.9667 50.6698 14.42C51.4565 14.8733 52.3098 15.1 53.2298 15.1C53.8965 15.1 54.5232 14.9733 55.1098 14.72C55.6965 14.4533 56.1698 14.0933 56.5298 13.64C56.9032 13.1867 57.0898 12.6667 57.0898 12.08C57.0898 12.0133 57.0898 11.9733 57.0898 11.96H53.1098V9.82H59.3098C59.3365 10.02 59.3565 10.22 59.3698 10.42C59.3965 10.62 59.4098 10.82 59.4098 11.02C59.4098 11.7533 59.2965 12.4733 59.0698 13.18C58.8565 13.8867 58.5165 14.5 58.0498 15.02C57.5165 15.6867 56.8232 16.22 55.9698 16.62C55.1298 17.0067 54.1965 17.2 53.1698 17.2C52.1565 17.2 51.2098 17.02 50.3298 16.66C49.4498 16.2867 48.6765 15.7733 48.0098 15.12C47.3432 14.4667 46.8232 13.7067 46.4498 12.84C46.0898 11.96 45.9098 11.0133 45.9098 10C45.9098 8.98667 46.0898 8.05333 46.4498 7.2C46.8232 6.33333 47.3365 5.58 47.9898 4.94C48.6565 4.28667 49.4298 3.78 50.3098 3.42C51.1898 3.06 52.1365 2.88 53.1498 2.88ZM95.4772 2.88C96.2772 2.88 97.0172 2.99333 97.6972 3.22C98.3772 3.44667 98.9772 3.74 99.4972 4.1C100.017 4.46 100.424 4.84667 100.717 5.26L99.3172 6.72C98.7839 6.21333 98.1972 5.8 97.5572 5.48C96.9172 5.14667 96.2239 4.98 95.4772 4.98C94.5305 4.98 93.6705 5.2 92.8972 5.64C92.1372 6.08 91.5372 6.68 91.0972 7.44C90.6572 8.18667 90.4372 9.04 90.4372 10C90.4372 10.9467 90.6705 11.8067 91.1372 12.58C91.6039 13.3533 92.2239 13.9667 92.9972 14.42C93.7839 14.8733 94.6372 15.1 95.5572 15.1C96.2239 15.1 96.8505 14.9733 97.4372 14.72C98.0239 14.4533 98.4972 14.0933 98.8572 13.64C99.2305 13.1867 99.4172 12.6667 99.4172 12.08C99.4172 12.0133 99.4172 11.9733 99.4172 11.96H95.4372V9.82H101.637C101.664 10.02 101.684 10.22 101.697 10.42C101.724 10.62 101.737 10.82 101.737 11.02C101.737 11.7533 101.624 12.4733 101.397 13.18C101.184 13.8867 100.844 14.5 100.377 15.02C99.8439 15.6867 99.1505 16.22 98.2972 16.62C97.4572 17.0067 96.5239 17.2 95.4972 17.2C94.4839 17.2 93.5372 17.02 92.6572 16.66C91.7772 16.2867 91.0039 15.7733 90.3372 15.12C89.6705 14.4667 89.1505 13.7067 88.7772 12.84C88.4172 11.96 88.2372 11.0133 88.2372 10C88.2372 8.98667 88.4172 8.05333 88.7772 7.2C89.1505 6.33333 89.6639 5.58 90.3172 4.94C90.9839 4.28667 91.7572 3.78 92.6372 3.42C93.5172 3.06 94.4639 2.88 95.4772 2.88Z" fill="#4285F4"/>
<path d="M28.635 11.74C28.635 12.8067 28.395 13.7533 27.915 14.58C27.4483 15.3933 26.8083 16.0333 25.995 16.5C25.195 16.9667 24.295 17.2 23.295 17.2C22.295 17.2 21.3883 16.9667 20.575 16.5C19.7617 16.0333 19.115 15.3933 18.635 14.58C18.1683 13.7533 17.935 12.8067 17.935 11.74C17.935 10.6733 18.1683 9.73333 18.635 8.92C19.115 8.09333 19.7617 7.44667 20.575 6.98C21.3883 6.51333 22.295 6.28 23.295 6.28C24.295 6.28 25.195 6.51333 25.995 6.98C26.8083 7.44667 27.4483 8.09333 27.915 8.92C28.395 9.73333 28.635 10.6733 28.635 11.74ZM26.535 11.74C26.5483 11.0333 26.4083 10.4133 26.115 9.88C25.835 9.33333 25.4483 8.91333 24.955 8.62C24.4617 8.31333 23.9083 8.16 23.295 8.16C22.6817 8.16 22.1217 8.31333 21.615 8.62C21.1217 8.91333 20.7283 9.33333 20.435 9.88C20.155 10.4133 20.0217 11.0333 20.035 11.74C20.0217 12.4333 20.155 13.0533 20.435 13.6C20.7283 14.1333 21.1217 14.5533 21.615 14.86C22.1217 15.1667 22.6817 15.32 23.295 15.32C23.9083 15.32 24.4617 15.1667 24.955 14.86C25.4483 14.5533 25.835 14.1333 26.115 13.6C26.4083 13.0533 26.5483 12.4333 26.535 11.74ZM82.467 11.74C82.467 12.8067 82.227 13.7533 81.747 14.58C81.2804 15.3933 80.6404 16.0333 79.827 16.5C79.027 16.9667 78.127 17.2 77.127 17.2C76.127 17.2 75.2204 16.9667 74.407 16.5C73.5937 16.0333 72.947 15.3933 72.467 14.58C72.0004 13.7533 71.767 12.8067 71.767 11.74C71.767 10.6733 72.0004 9.73333 72.467 8.92C72.947 8.09333 73.5937 7.44667 74.407 6.98C75.2204 6.51333 76.127 6.28 77.127 6.28C78.127 6.28 79.027 6.51333 79.827 6.98C80.6404 7.44667 81.2804 8.09333 81.747 8.92C82.227 9.73333 82.467 10.6733 82.467 11.74ZM80.367 11.74C80.3804 11.0333 80.2404 10.4133 79.947 9.88C79.667 9.33333 79.2804 8.91333 78.787 8.62C78.2937 8.31333 77.7404 8.16 77.127 8.16C76.5137 8.16 75.9537 8.31333 75.447 8.62C74.9537 8.91333 74.5604 9.33333 74.267 9.88C73.987 10.4133 73.8537 11.0333 73.867 11.74C73.8537 12.4333 73.987 13.0533 74.267 13.6C74.5604 14.1333 74.9537 14.5533 75.447 14.86C75.9537 15.1667 76.5137 15.32 77.127 15.32C77.7404 15.32 78.2937 15.1667 78.787 14.86C79.2804 14.5533 79.667 14.1333 79.947 13.6C80.2404 13.0533 80.3804 12.4333 80.367 11.74ZM116.526 18.74C116.926 19.0467 117.426 19.2933 118.026 19.48C118.626 19.6667 119.213 19.76 119.786 19.76C120.866 19.76 121.693 19.4933 122.266 18.96C122.839 18.44 123.126 17.6533 123.126 16.6V15.32C122.939 15.64 122.673 15.9467 122.326 16.24C121.979 16.52 121.573 16.7533 121.106 16.94C120.639 17.1133 120.153 17.2 119.646 17.2C118.673 17.2 117.793 16.9667 117.006 16.5C116.219 16.0333 115.593 15.3867 115.126 14.56C114.673 13.7333 114.446 12.7933 114.446 11.74C114.446 10.6733 114.673 9.73333 115.126 8.92C115.579 8.09333 116.193 7.44667 116.966 6.98C117.753 6.51333 118.626 6.28 119.586 6.28C120.386 6.28 121.093 6.46 121.706 6.82C122.333 7.16667 122.806 7.54667 123.126 7.96V6.5H125.186V16.36C125.186 17.6133 124.933 18.62 124.426 19.38C123.933 20.1533 123.273 20.7133 122.446 21.06C121.633 21.42 120.746 21.6 119.786 21.6C119.039 21.6 118.293 21.48 117.546 21.24C116.813 21.0133 116.219 20.7133 115.766 20.34L116.526 18.74ZM119.866 8.16C119.226 8.16 118.653 8.32 118.146 8.64C117.653 8.94667 117.259 9.37333 116.966 9.92C116.686 10.4533 116.546 11.06 116.546 11.74C116.546 12.42 116.686 13.0267 116.966 13.56C117.259 14.0933 117.653 14.52 118.146 14.84C118.653 15.1467 119.226 15.3 119.866 15.3C120.533 15.3 121.113 15.1467 121.606 14.84C122.113 14.5333 122.506 14.1133 122.786 13.58C123.066 13.0333 123.206 12.42 123.206 11.74C123.206 11.0467 123.066 10.4333 122.786 9.9C122.506 9.36667 122.113 8.94667 121.606 8.64C121.113 8.32 120.533 8.16 119.866 8.16Z" fill="#EA4335"/>
<path d="M40.1397 11.74C40.1397 12.8067 39.8997 13.7533 39.4197 14.58C38.953 15.3933 38.313 16.0333 37.4997 16.5C36.6997 16.9667 35.7997 17.2 34.7997 17.2C33.7997 17.2 32.893 16.9667 32.0797 16.5C31.2664 16.0333 30.6197 15.3933 30.1397 14.58C29.673 13.7533 29.4397 12.8067 29.4397 11.74C29.4397 10.6733 29.673 9.73333 30.1397 8.92C30.6197 8.09333 31.2664 7.44667 32.0797 6.98C32.893 6.51333 33.7997 6.28 34.7997 6.28C35.7997 6.28 36.6997 6.51333 37.4997 6.98C38.313 7.44667 38.953 8.09333 39.4197 8.92C39.8997 9.73333 40.1397 10.6733 40.1397 11.74ZM38.0397 11.74C38.053 11.0333 37.913 10.4133 37.6197 9.88C37.3397 9.33333 36.953 8.91333 36.4597 8.62C35.9664 8.31333 35.413 8.16 34.7997 8.16C34.1864 8.16 33.6264 8.31333 33.1197 8.62C32.6264 8.91333 32.233 9.33333 31.9397 9.88C31.6597 10.4133 31.5264 11.0333 31.5397 11.74C31.5264 12.4333 31.6597 13.0533 31.9397 13.6C32.233 14.1333 32.6264 14.5533 33.1197 14.86C33.6264 15.1667 34.1864 15.32 34.7997 15.32C35.413 15.32 35.9664 15.1667 36.4597 14.86C36.953 14.5533 37.3397 14.1333 37.6197 13.6C37.913 13.0533 38.053 12.4333 38.0397 11.74ZM70.9623 11.74C70.9623 12.8067 70.7223 13.7533 70.2423 14.58C69.7757 15.3933 69.1357 16.0333 68.3223 16.5C67.5223 16.9667 66.6223 17.2 65.6223 17.2C64.6223 17.2 63.7157 16.9667 62.9023 16.5C62.089 16.0333 61.4423 15.3933 60.9623 14.58C60.4957 13.7533 60.2623 12.8067 60.2623 11.74C60.2623 10.6733 60.4957 9.73333 60.9623 8.92C61.4423 8.09333 62.089 7.44667 62.9023 6.98C63.7157 6.51333 64.6223 6.28 65.6223 6.28C66.6223 6.28 67.5223 6.51333 68.3223 6.98C69.1357 7.44667 69.7757 8.09333 70.2423 8.92C70.7223 9.73333 70.9623 10.6733 70.9623 11.74ZM68.8623 11.74C68.8757 11.0333 68.7357 10.4133 68.4423 9.88C68.1623 9.33333 67.7757 8.91333 67.2823 8.62C66.789 8.31333 66.2357 8.16 65.6223 8.16C65.009 8.16 64.449 8.31333 63.9423 8.62C63.449 8.91333 63.0557 9.33333 62.7623 9.88C62.4823 10.4133 62.349 11.0333 62.3623 11.74C62.349 12.4333 62.4823 13.0533 62.7623 13.6C63.0557 14.1333 63.449 14.5533 63.9423 14.86C64.449 15.1667 65.009 15.32 65.6223 15.32C66.2357 15.32 66.789 15.1667 67.2823 14.86C67.7757 14.5533 68.1623 14.1333 68.4423 13.6C68.7357 13.0533 68.8757 12.4333 68.8623 11.74ZM113.01 6.5V17H110.93V15.38C110.61 15.82 110.136 16.2333 109.51 16.62C108.883 17.0067 108.156 17.2 107.33 17.2C106.45 17.2 105.643 16.9667 104.91 16.5C104.19 16.0333 103.616 15.3867 103.19 14.56C102.763 13.7333 102.55 12.7867 102.55 11.72C102.55 10.6533 102.77 9.71333 103.21 8.9C103.65 8.07333 104.256 7.43333 105.03 6.98C105.803 6.51333 106.683 6.28 107.67 6.28C108.403 6.28 109.043 6.44 109.59 6.76C110.15 7.08 110.596 7.45333 110.93 7.88V6.5H113.01ZM107.81 15.3C108.45 15.3 109.01 15.1467 109.49 14.84C109.97 14.52 110.343 14.0933 110.61 13.56C110.876 13.0133 111.01 12.4 111.01 11.72C111.01 11.0533 110.876 10.4533 110.61 9.92C110.343 9.38667 109.97 8.96667 109.49 8.66C109.01 8.34 108.45 8.18 107.81 8.18C107.196 8.18 106.65 8.33333 106.17 8.64C105.69 8.94667 105.316 9.36667 105.05 9.9C104.783 10.4333 104.65 11.04 104.65 11.72C104.65 12.4 104.783 13.0133 105.05 13.56C105.316 14.0933 105.69 14.52 106.17 14.84C106.65 15.1467 107.196 15.3 107.81 15.3Z" fill="#FBBC04"/>
<path d="M137.054 6.5V17H134.974V15.38C134.654 15.82 134.181 16.2333 133.554 16.62C132.928 17.0067 132.201 17.2 131.374 17.2C130.494 17.2 129.688 16.9667 128.954 16.5C128.234 16.0333 127.661 15.3867 127.234 14.56C126.808 13.7333 126.594 12.7867 126.594 11.72C126.594 10.6533 126.814 9.71333 127.254 8.9C127.694 8.07333 128.301 7.43333 129.074 6.98C129.848 6.51333 130.728 6.28 131.714 6.28C132.448 6.28 133.088 6.44 133.634 6.76C134.194 7.08 134.641 7.45333 134.974 7.88V6.5H137.054ZM131.854 15.3C132.494 15.3 133.054 15.1467 133.534 14.84C134.014 14.52 134.388 14.0933 134.654 13.56C134.921 13.0133 135.054 12.4 135.054 11.72C135.054 11.0533 134.921 10.4533 134.654 9.92C134.388 9.38667 134.014 8.96667 133.534 8.66C133.054 8.34 132.494 8.18 131.854 8.18C131.241 8.18 130.694 8.33333 130.214 8.64C129.734 8.94667 129.361 9.36667 129.094 9.9C128.828 10.4333 128.694 11.04 128.694 11.72C128.694 12.4 128.828 13.0133 129.094 13.56C129.361 14.0933 129.734 14.52 130.214 14.84C130.694 15.1467 131.241 15.3 131.854 15.3Z" fill="#34A853"/>
</svg>
